<svg width="2413" height="886" viewBox="0 0 2413 886" fill="none" xmlns="http://www.w3.org/2000/svg">
<path fill-rule="evenodd" clip-rule="evenodd" d="M1411.17 602C1482.42 602 1546.24 573.298 1589.16 528.02C1636.6 572.146 1727.62 602 1832.11 602C1981.29 602 2103.01 541.147 2109.64 464.787C2114.2 464.887 2118.78 464.938 2123.4 464.938C2283.34 464.938 2413 404.174 2413 329.219C2413 254.264 2283.34 193.5 2123.4 193.5C2121.14 193.5 2118.89 193.512 2116.65 193.536C2115.56 110.277 2010.44 43.0002 1880.93 43.0002C1864.16 43.0002 1847.79 44.1296 1832 46.2767C1781.2 17.4131 1715.4 0 1643.53 0C1554.43 0 1474.67 26.7591 1421.24 68.9184C1366.26 82.8293 1319.73 128.545 1292.84 191.159C1159.34 211.851 1066 259.26 1066 314.437C1066 351.832 1108.87 385.659 1178.06 410.02C1188.71 517.638 1289.01 602 1411.17 602Z" fill="url(#paint0_linear_453_151)"/>
<path fill-rule="evenodd" clip-rule="evenodd" d="M345.169 602C416.422 602 480.238 573.298 523.164 528.02C570.6 572.146 661.617 602 766.107 602C915.288 602 1037.01 541.147 1043.64 464.787C1048.2 464.887 1052.78 464.938 1057.4 464.938C1217.34 464.938 1347 404.174 1347 329.219C1347 254.264 1217.34 193.5 1057.4 193.5C1055.14 193.5 1052.89 193.512 1050.65 193.536C1049.56 110.277 944.445 43.0002 814.935 43.0002C798.155 43.0002 781.785 44.1296 765.998 46.2767C715.197 17.4131 649.402 0 577.526 0C488.426 0 408.669 26.7591 355.238 68.9184C300.257 82.8293 253.728 128.545 226.839 191.159C93.3433 211.851 0 259.26 0 314.437C0 351.832 42.8733 385.659 112.063 410.02C122.713 517.638 223.011 602 345.169 602Z" fill="url(#paint1_linear_453_151)"/>
<path fill-rule="evenodd" clip-rule="evenodd" d="M998.306 483C1049.56 483 1095.47 464.024 1126.35 434.089C1160.48 463.262 1225.95 483 1301.12 483C1408.44 483 1496 442.768 1500.77 392.285C1504.05 392.351 1507.35 392.384 1510.67 392.384C1625.73 392.384 1719 352.212 1719 302.656C1719 253.101 1625.73 212.929 1510.67 212.929C1509.04 212.929 1507.43 212.937 1505.81 212.953C1505.03 157.908 1429.41 113.429 1336.24 113.429C1324.17 113.429 1312.4 114.175 1301.04 115.595C1264.5 96.5123 1217.16 85 1165.46 85C1101.36 85 1043.99 102.691 1005.55 130.564C965.998 139.761 932.526 169.985 913.183 211.381C817.149 225.061 750 256.404 750 292.884C750 317.607 780.842 339.971 830.615 356.076C838.277 427.225 910.429 483 998.306 483Z" fill="url(#paint2_linear_453_151)"/>
<path fill-rule="evenodd" clip-rule="evenodd" d="M1371.42 695C1438.39 695 1498.37 670.207 1538.72 631.097C1583.3 669.212 1668.85 695 1767.05 695C1907.27 695 2021.67 642.436 2027.91 576.477C2032.19 576.564 2036.5 576.607 2040.83 576.607C2191.16 576.607 2313.03 524.121 2313.03 459.375C2313.03 394.63 2191.16 342.143 2040.83 342.143C2038.72 342.143 2036.6 342.153 2034.5 342.174C2033.47 270.256 1934.67 212.143 1812.95 212.143C1797.18 212.143 1781.79 213.119 1766.95 214.973C1719.21 190.041 1657.37 175 1589.81 175C1506.07 175 1431.1 198.114 1380.88 234.531C1329.21 246.547 1285.48 286.036 1260.2 340.121C1134.73 357.994 1047 398.946 1047 446.607C1047 478.908 1087.3 508.128 1152.33 529.17C1162.34 622.129 1256.61 695 1371.42 695Z" fill="url(#paint3_linear_453_151)"/>
<path fill-rule="evenodd" clip-rule="evenodd" d="M497.169 886C568.422 886 632.238 857.298 675.164 812.02C722.6 856.146 813.617 886 918.107 886C1067.29 886 1189.01 825.147 1195.64 748.787C1200.2 748.887 1204.78 748.938 1209.4 748.938C1369.34 748.938 1499 688.174 1499 613.219C1499 538.264 1369.34 477.5 1209.4 477.5C1207.14 477.5 1204.89 477.512 1202.65 477.536C1201.56 394.277 1096.44 327 966.935 327C950.155 327 933.785 328.13 917.998 330.277C867.197 301.413 801.402 284 729.526 284C640.426 284 560.669 310.759 507.238 352.918C452.257 366.829 405.728 412.545 378.839 475.159C245.343 495.851 152 543.26 152 598.437C152 635.832 194.873 669.659 264.063 694.02C274.713 801.638 375.011 886 497.169 886Z" fill="url(#paint4_linear_453_151)"/>
<defs>
<linearGradient id="paint0_linear_453_151" x1="1739.5" y1="0" x2="1739.5" y2="602" gradientUnits="userSpaceOnUse">
<stop stop-color="#D4DCDA"/>
<stop offset="1" stop-color="#2E0D48"/>
</linearGradient>
<linearGradient id="paint1_linear_453_151" x1="673.5" y1="0" x2="673.5" y2="602" gradientUnits="userSpaceOnUse">
<stop stop-color="#D4DCDA"/>
<stop offset="1" stop-color="#2E0D48"/>
</linearGradient>
<linearGradient id="paint2_linear_453_151" x1="1234.5" y1="85" x2="1234.5" y2="483" gradientUnits="userSpaceOnUse">
<stop stop-color="#D4DCDA"/>
<stop offset="1" stop-color="#2E0D48"/>
</linearGradient>
<linearGradient id="paint3_linear_453_151" x1="1680.02" y1="175" x2="1680.02" y2="695" gradientUnits="userSpaceOnUse">
<stop stop-color="#D4DCDA"/>
<stop offset="1" stop-color="#2E0D48"/>
</linearGradient>
<linearGradient id="paint4_linear_453_151" x1="825.5" y1="284" x2="825.5" y2="886" gradientUnits="userSpaceOnUse">
<stop stop-color="#D4DCDA"/>
<stop offset="1" stop-color="#2E0D48"/>
</linearGradient>
</defs>
</svg>
