<svg xmlns="http://www.w3.org/2000/svg" width="145.802" height="200" viewBox="0 0 145.802 200"><path d="M88.591,261.063c-29.865,0-54.075,21.978-54.074,49.089A46.733,46.733,0,0,0,49.076,343.6c-20.809,11.752-33.382,31.95-33.385,53.631,0,35.25,32.638,63.827,72.9,63.828s72.9-28.578,72.9-63.83c-.03-21.681-12.628-41.866-33.452-53.6a46.746,46.746,0,0,0,14.624-33.483c0-27.111-24.21-49.089-54.074-49.089ZM71.5,296.99a8.763,8.763,0,1,1-8.763,8.763A8.763,8.763,0,0,1,71.5,296.99Zm34.174,0a8.763,8.763,0,1,1-8.763,8.763A8.763,8.763,0,0,1,105.678,296.99Z" transform="translate(-15.691 -261.063)"/></svg>