<?xml version="1.0" encoding="UTF-8" standalone="no"?>
<svg
   width="200"
   height="194.247"
   viewBox="0 0 200 194.247"
   version="1.1"
   id="svg2028"
   sodipodi:docname="ifn0974.svg"
   inkscape:version="1.1 (c4e8f9e, 2021-05-24)"
   xmlns:inkscape="http://www.inkscape.org/namespaces/inkscape"
   xmlns:sodipodi="http://sodipodi.sourceforge.net/DTD/sodipodi-0.dtd"
   xmlns="http://www.w3.org/2000/svg"
   xmlns:svg="http://www.w3.org/2000/svg">
  <defs
     id="defs2032" />
  <sodipodi:namedview
     id="namedview2030"
     pagecolor="#ffffff"
     bordercolor="#666666"
     borderopacity="1.0"
     inkscape:pageshadow="2"
     inkscape:pageopacity="0.0"
     inkscape:pagecheckerboard="0"
     showgrid="false"
     inkscape:zoom="4.494278"
     inkscape:cx="99.904811"
     inkscape:cy="97.123497"
     inkscape:window-width="1685"
     inkscape:window-height="1027"
     inkscape:window-x="0"
     inkscape:window-y="25"
     inkscape:window-maximized="0"
     inkscape:current-layer="svg2028" />
  <path
     d="m 3369.673,2882.422 c 25.0612,-6.271 36.7846,-35.1051 23.2101,-57.0849 -13.5745,-21.9799 -44.6058,-24.4091 -61.4351,-4.8091 0.503,-26.8196 -24.7899,-46.673 -50.7225,-39.8145 -25.9325,6.8585 -38.1035,36.6202 -24.4075,59.6845 -23.7087,-12.6251 -52.8111,1.7397 -57.2092,28.2376 -4.3982,26.4979 18.5032,49.4942 45.0192,45.2054 -13.5031,21.8932 -2.664,50.6403 21.9321,58.1684 24.5961,7.528 49.6682,-10.2279 50.7319,-35.9284 11.662,25.8763 45.6721,31.9711 65.5943,11.7554 19.9222,-20.2157 13.3308,-54.133 -12.7133,-65.4154 z m -80.9448,7.9986 c -6.8201,-9.0935 -4.9695,-21.9962 4.1207,-28.8104 9.0896,-6.8138 21.9764,-4.9594 28.7954,4.1326 6.819,9.0921 4.991,21.9826 -4.0954,28.8008 -9.0869,6.8186 -21.9916,4.9824 -28.8117,-4.111 z"
     transform="translate(-3198.578,-2779.484)"
     id="path2026"
     sodipodi:nodetypes="cscscscscsccssssss" />
</svg>
