<svg xmlns="http://www.w3.org/2000/svg" width="200" height="190.212" viewBox="0 0 200 190.212"><path d="M155.969,190.212h0c-2.538-.985-6.307-1.528-10.67-2.156a118.169,118.169,0,0,1-21.113-4.514,70.808,70.808,0,0,1-12.035-5.233A68.334,68.334,0,0,1,100,169.743a68.345,68.345,0,0,1-12.15,8.563,70.832,70.832,0,0,1-12.034,5.233A118.219,118.219,0,0,1,54.7,188.054c-4.365.629-8.134,1.172-10.672,2.157l2.6-13.5-12.037,6.643c.153-2.718-.5-6.471-1.247-10.817a118.172,118.172,0,0,1-2.231-21.474A70.808,70.808,0,0,1,32.372,138a68.335,68.335,0,0,1,4.391-14.2,68.344,68.344,0,0,1-11.9-8.909,70.816,70.816,0,0,1-8.7-9.829A118.179,118.179,0,0,1,5.349,86.376C3.4,82.42,1.721,79,0,76.893l13.642-1.7L3.605,65.8c2.632-.695,6-2.471,9.9-4.528a127.582,127.582,0,0,1,17.3-7.94,69.828,69.828,0,0,1,23.614-4.178c2.145,0,4.331.1,6.5.308a68.335,68.335,0,0,1,4.8-14.071,70.812,70.812,0,0,1,6.66-11.307A118.189,118.189,0,0,1,86.8,8.018C89.962,4.944,92.692,2.289,94.166,0L100,12.449,105.834,0c1.474,2.289,4.2,4.944,7.366,8.018a118.183,118.183,0,0,1,14.428,16.063,70.816,70.816,0,0,1,6.66,11.308,68.337,68.337,0,0,1,4.8,14.071c2.166-.2,4.35-.307,6.49-.307a69.848,69.848,0,0,1,23.618,4.178,127.586,127.586,0,0,1,17.3,7.94c3.9,2.057,7.27,3.833,9.9,4.528l-10.037,9.4L200,76.894c-1.721,2.109-3.4,5.526-5.349,9.483a118.181,118.181,0,0,1-10.818,18.685,70.815,70.815,0,0,1-8.7,9.828,68.336,68.336,0,0,1-11.9,8.909,68.339,68.339,0,0,1,4.391,14.2,70.81,70.81,0,0,1,1.258,13.062,118.168,118.168,0,0,1-2.231,21.474c-.751,4.345-1.4,8.1-1.247,10.817l-12.038-6.642,2.6,13.5ZM100,120.8a5.7,5.7,0,1,0,5.7,5.7A5.7,5.7,0,0,0,100,120.8Zm19.17-11.066a5.718,5.718,0,0,0-4.94,2.85,5.7,5.7,0,0,0,4.929,8.548,5.7,5.7,0,0,0,.01-11.4Zm-38.341,0a5.7,5.7,0,1,0,4.941,2.85A5.7,5.7,0,0,0,80.829,109.73ZM119.16,87.6a5.7,5.7,0,1,0,4.94,2.85A5.7,5.7,0,0,0,119.16,87.6Zm-38.319,0a5.7,5.7,0,1,0,2.843.764A5.721,5.721,0,0,0,80.841,87.6ZM100,76.534a5.7,5.7,0,1,0,5.7,5.7A5.7,5.7,0,0,0,100,76.534Z"/></svg>